<svg width="165" height="65" viewBox="0 0 165 65" fill="none" xmlns="http://www.w3.org/2000/svg">
<path d="M0.698482 14.7139C1.81704 12.3047 3.70999 10.842 6.46338 10.4978H7.06568C12.7445 10.6699 12.0562 14.972 12.0562 14.972C12.0562 15.4883 11.712 15.8325 11.1958 16.0046C10.5934 16.1767 9.99115 15.9185 9.64697 15.2302C9.47489 15.1441 9.47489 14.972 9.47489 14.8C9.3028 13.9395 8.7005 13.4233 7.92611 13.1651C7.40985 13.0791 6.72151 12.9931 6.20525 13.1651C4.14021 13.5954 2.59143 15.4883 2.59143 17.5533C2.59143 19.6184 3.96812 21.5974 5.94712 22.1136C7.15172 22.3718 8.35633 22.4578 9.64697 22.5438C11.4539 22.6299 13.1747 22.888 14.8956 23.4043C17.3909 24.2647 19.628 25.4693 21.0907 27.7064C21.2628 27.9646 21.4349 28.1367 21.607 28.2227H18.2513C17.4769 27.3623 16.5304 26.846 15.584 26.4158C13.605 25.4693 11.4539 25.1251 9.3028 25.0391C7.92611 24.9531 6.63546 24.867 5.34481 24.6089C1.04265 23.4903 -1.19447 18.6719 0.698482 14.7139Z" fill="#5C3594"/>
<path d="M67.8125 26.8457C67.2963 25.555 66.1777 25.0388 64.801 24.6946C63.4243 24.3504 62.1337 24.6086 61.1872 25.383C60.757 25.1248 60.4128 24.8667 59.8965 24.6086C59.8105 23.9202 60.2407 23.7481 60.843 23.8342C62.5639 24.0063 64.1987 24.2644 65.9196 24.5225C66.0917 24.5225 66.3498 24.4365 66.5219 24.4365C64.4568 23.49 62.3058 23.576 60.0686 23.2319C60.1547 22.7156 60.1547 22.2854 60.2407 21.7691C61.6174 21.6831 62.822 21.6831 64.0266 21.5971L67.5544 21.5971C65.2312 20.9947 62.822 21.1668 60.4128 21.1668V19.7901C61.5314 19.532 62.5639 19.2739 63.5964 18.9297C64.6289 18.6716 65.7475 18.6716 66.694 18.0693C64.5429 17.9832 62.5639 18.6716 60.4128 19.1018C60.4128 17.8112 60.3268 16.6065 60.4128 15.4019C60.757 11.53 61.1012 7.7441 60.757 3.9582C60.6709 3.09776 60.4989 2.23733 60.2407 1.46294C59.6384 0.0862526 58.3478 -0.343963 57.0571 0.344382C56.4548 0.688555 55.8525 1.11877 55.3363 1.63503C53.7875 3.52798 52.1527 5.42093 50.6899 7.39992C50.0876 8.17431 49.5714 8.51849 48.6249 8.51849C45.3553 8.51849 42.0856 8.60453 38.816 8.69057C38.2137 8.69057 37.9555 8.3464 37.6974 8.00223C36.4068 6.28136 35.0301 4.5605 33.6534 2.92568C33.1371 2.32338 32.5348 1.72107 31.8465 1.29086C30.1256 0.0862526 28.4047 0.602512 27.8885 2.66755C27.5443 3.78611 27.4583 5.07676 27.4583 6.28136C27.2862 9.72309 27.5443 13.1648 27.9745 16.6065C28.1466 17.6391 27.9745 18.6716 27.8024 19.7901C26.5118 19.3599 25.2211 18.9297 24.0165 18.4995C21.6934 17.8112 20.919 17.6391 20.1446 18.0693C20.7469 18.2414 21.1771 18.3274 21.6073 18.4995C23.4142 19.1018 25.3072 19.6181 27.1141 20.2204C27.8024 20.3924 28.0606 20.8227 27.6304 21.5971C27.028 21.511 26.3397 21.3389 25.7374 21.3389C23.7584 21.2529 21.7794 21.0808 19.8004 20.9947C19.5423 20.9947 19.2842 21.1668 19.026 21.2529C19.5423 21.511 20.0586 21.425 20.5748 21.511C22.6398 21.6831 24.7909 21.8552 26.856 22.0273C27.8885 22.1133 27.9745 22.2854 27.7164 23.576H23.7584C22.4678 23.576 21.1771 23.6621 19.8865 24.2644C20.2306 24.3504 20.6609 24.3504 21.005 24.3504C22.2096 24.2644 23.4142 24.0923 24.6188 24.0063H27.4583C28.0606 24.0063 28.2327 24.3504 28.0606 24.9527L24.963 24.6946C22.898 24.6086 21.1771 25.0388 20.2306 26.9317H12.8309C12.4868 26.9317 12.1426 27.2759 12.1426 27.6201C12.1426 28.0503 12.4868 28.3084 12.8309 28.3084H20.0586C20.4888 28.8247 20.8329 29.3409 21.2632 29.5991C21.9515 30.0293 22.7259 29.5991 23.3282 29.1689C24.877 30.2874 25.2211 30.2874 26.856 29.3409C27.6304 29.6851 28.4908 30.2014 29.3512 29.6851C30.1256 29.2549 30.6419 28.5665 31.4163 27.8782H32.7069C32.4488 27.3619 32.1906 26.7596 32.1046 26.1573C31.8465 24.6086 32.1906 23.1458 33.1371 21.8552L37.4393 15.6601C38.0416 14.7136 39.1601 14.1973 40.2787 14.1973C40.5368 14.1973 40.795 14.1973 41.0531 14.2834C42.5158 14.6276 43.5483 15.7461 43.7204 17.2088V17.467C43.7204 17.8111 43.8065 18.0693 43.8925 18.4135H44.4088C44.4948 18.0693 44.4948 17.7251 44.5809 17.2949C44.7529 15.8322 45.8715 14.7136 47.3342 14.3694C47.5924 14.2834 47.7645 14.2834 48.0226 14.2834C49.1411 14.2834 50.2597 14.8857 50.862 15.8322L51.8945 17.3809C52.927 18.9297 54.0456 20.4785 55.0781 22.0273C56.1967 23.6621 56.5409 25.6411 55.8525 27.534C55.7665 27.7061 55.6804 27.9642 55.5944 28.1363H56.799C58.1757 30.2014 58.778 30.4595 61.1872 29.5991C62.736 30.4595 62.9941 30.4595 64.5429 29.427C66.1777 30.2874 66.866 30.2014 67.7265 28.5665H79.1702C79.5144 28.5665 79.8586 28.2224 79.8586 27.8782C79.8586 27.448 79.5144 27.1899 79.1702 27.1899H69.1892C69.3613 26.9317 67.8125 26.9317 67.8125 26.8457Z" fill="#5C3594"/>
<path d="M44.4947 23.8337C44.4947 23.6617 44.4947 23.4896 44.4087 23.3175C44.4087 23.3175 44.4087 23.2314 44.3227 23.2314H44.1506V23.3175C43.9785 23.9198 43.9785 24.5221 43.8924 25.2104C43.8924 26.1569 43.6343 27.1034 43.2041 27.8778H45.2691C44.8389 27.1034 44.5808 26.1569 44.5808 25.2104C44.5808 24.7802 44.5808 24.35 44.4947 23.8337Z" fill="#5C3594"/>
<path d="M50.1734 16.2629C49.5711 15.4025 48.5386 14.9723 47.5922 15.2304C46.5596 15.4885 45.7852 16.2629 45.6132 17.3815L45.355 18.9303C45.269 19.2744 45.0969 19.3605 44.7527 19.3605H43.8923C43.4621 19.3605 43.2039 19.1884 43.1179 18.8442C43.0319 18.414 42.9458 17.8977 42.8598 17.3815C42.6877 16.349 41.9993 15.5746 40.8808 15.3164C39.9343 15.0583 38.9018 15.4885 38.2995 16.349C36.8368 18.414 35.4601 20.479 33.9973 22.5441C33.2229 23.6626 32.9648 24.8672 33.1369 26.1579C33.5671 28.9113 36.4065 30.8903 39.1599 30.1159C41.397 29.5136 42.8598 27.7067 42.9458 25.2975C42.9458 24.6091 43.0319 23.9208 43.2039 23.2324C43.376 22.458 43.5481 22.372 44.4086 22.372C44.8388 22.372 45.0969 22.5441 45.269 22.8882C45.269 22.9743 45.355 23.1464 45.4411 23.2324L45.6992 25.2975C45.7852 28.0508 47.8503 30.2019 50.6037 30.2019C51.0339 30.1159 51.3781 30.1159 51.8083 30.0298C54.9919 29.2554 56.7127 25.3835 54.5617 22.372C53.0129 20.307 51.6362 18.2419 50.1734 16.2629ZM38.0414 29.4275C35.7182 29.4275 33.9113 27.6206 33.9113 25.2114C33.9113 22.9743 35.8042 21.1674 38.0414 21.1674C40.3645 21.1674 42.1714 22.9743 42.1714 25.2975C42.1714 27.5346 40.2785 29.4275 38.0414 29.4275ZM44.4946 21.5116H44.0644V20.0488H44.4946V21.5116ZM50.5176 29.4275C48.1945 29.4275 46.3875 27.6206 46.3875 25.2975C46.3875 22.9743 48.2805 21.1674 50.5176 21.1674C52.8408 21.1674 54.6477 22.9743 54.6477 25.2975C54.6477 27.5346 52.7547 29.3415 50.5176 29.4275Z" fill="#F56476"/>
<path d="M40.5354 25.297C40.5354 25.8132 40.3633 26.4155 39.9331 26.8458C39.4168 27.4481 38.8145 27.7062 38.1262 27.7922C37.696 27.7922 37.5239 28.1364 37.696 28.3945C37.782 28.4806 38.0401 28.5666 38.2122 28.6527C39.8471 28.5666 41.3098 27.0178 41.3098 25.383C41.3098 25.1249 41.2237 24.9528 40.9656 24.9528C40.6214 24.8668 40.5354 25.0389 40.5354 25.297ZM37.8681 22.8017C38.1262 22.8017 38.3843 22.7157 38.3843 22.3715C38.3843 22.0273 38.1262 22.0273 37.8681 22.0273C36.2332 22.0273 34.8566 23.4901 34.7705 25.1249C34.7705 25.383 34.8565 25.6412 35.1147 25.6412C35.3728 25.6412 35.5449 25.383 35.5449 25.1249C35.5449 25.0389 35.5449 24.8668 35.6309 24.7807C35.8891 23.5761 36.6635 22.8878 37.8681 22.8017ZM50.2583 27.7062C50.0002 27.7062 49.656 27.6202 49.3979 27.5341C48.4514 27.1039 48.0212 26.3295 47.9351 25.297C47.9351 25.0389 47.763 24.8668 47.5049 24.8668C47.3328 24.8668 47.1607 25.1249 47.1607 25.297C47.1607 27.1039 48.6235 28.3945 50.2583 28.4806C50.5164 28.4806 50.7745 28.4806 50.7745 28.1364C50.8606 27.7922 50.6025 27.7922 50.2583 27.7062ZM50.6885 22.0273C50.2583 22.0273 50.0002 22.1994 50.0862 22.4576C50.1722 22.7157 50.4304 22.8017 50.6025 22.8017C51.8931 22.8878 52.8396 23.9203 52.9256 25.2109C52.9256 25.4691 53.0117 25.7272 53.3558 25.7272C53.614 25.7272 53.7 25.4691 53.7 25.2109C53.7861 23.4901 52.3233 22.0273 50.6885 22.0273Z" fill="#F56476"/>
<path d="M39.1598 26.7605C39.9342 26.2443 40.1063 25.3838 39.6761 24.3513C38.6436 24.4374 38.6436 24.4374 38.5575 23.4909C37.439 23.3188 36.6646 23.663 36.3204 24.5234C35.9762 25.2978 36.1483 26.2443 36.9227 26.8466C37.525 27.1907 38.4715 27.1907 39.1598 26.7605ZM50.9477 23.4048C49.8292 23.2328 49.1408 23.5769 48.7967 24.4374C48.4525 25.2117 48.6246 26.0722 49.3129 26.6745C50.0013 27.1907 50.9477 27.2768 51.6361 26.7605C52.3244 26.2443 52.4965 25.4699 52.0663 24.4374C51.0338 24.3513 51.2059 24.6094 50.9477 23.4048ZM117.631 38.3764C118.061 38.3764 118.578 38.3764 119.008 38.4624C119.524 38.5484 120.04 38.6345 120.471 38.7205C121.675 38.9787 121.675 40.0112 121.417 40.7856C121.331 41.1297 120.987 41.3018 120.643 41.3018C119.954 41.3879 119.18 41.4739 118.492 41.4739H117.717C117.717 41.732 117.631 41.9041 117.631 42.0762C117.631 43.1087 117.545 44.1412 117.631 45.1738C117.717 46.8086 117.717 48.5295 117.975 50.1643C118.147 51.1968 118.406 52.3154 118.922 53.2618C119.524 54.3804 120.299 55.1548 121.503 55.585C121.847 55.671 122.191 55.7571 122.536 55.7571C123.826 55.8431 125.117 55.7571 126.408 55.671C128.559 55.4989 130.624 54.9827 132.689 54.5525C134.754 54.1223 136.819 53.9502 138.884 54.1223C140.002 54.2083 141.207 54.3804 142.326 54.5525C144.133 54.8106 145.939 54.8967 147.66 54.8106C149.983 54.6385 152.221 54.2943 154.458 53.52C155.662 53.0897 156.867 52.4874 157.899 51.627C159.19 50.5084 160.739 50.1643 162.374 50.5084C162.718 50.5945 163.062 50.6805 163.32 50.8526C164.181 51.2828 164.525 52.0572 164.525 53.0037C164.525 53.3479 164.439 53.7781 164.353 54.1223C163.492 56.7896 161.685 58.5105 158.932 59.1988C157.469 59.543 155.92 59.629 154.458 59.543C152.221 59.3709 150.069 58.8546 147.918 58.2523C146.025 57.7361 144.046 57.4779 142.154 57.2198C140.347 57.0477 138.454 57.0477 136.647 57.1338C134.668 57.3059 132.689 57.564 130.796 57.9942C129.161 58.3384 127.526 58.6825 125.891 58.9407C124.17 59.1988 122.45 59.2849 120.729 58.8546C118.32 58.2523 116.599 56.8756 115.394 54.7246C114.706 53.4339 114.276 51.9712 114.103 50.5084C113.931 49.3899 113.931 48.2713 113.931 47.0667C113.931 45.3459 113.931 43.625 113.845 41.8181V41.646H113.501C112.727 41.56 111.866 41.56 111.092 41.4739C110.404 41.3879 110.145 41.1297 109.973 40.5274C109.801 39.8391 109.973 39.4089 110.49 39.0647C110.92 38.8066 111.35 38.7205 111.866 38.7205C112.469 38.6345 113.071 38.5484 113.759 38.5484V38.1182C113.759 37.2578 113.759 36.4834 113.845 35.623C113.845 34.9346 114.017 34.2463 114.276 33.644C114.362 33.3858 114.534 33.1277 114.706 32.8696C115.394 32.0092 116.599 32.0952 117.201 33.0417C117.545 33.4719 117.631 34.0742 117.717 34.5905C117.803 35.3648 117.803 36.1392 117.803 36.9136C117.545 37.2578 117.631 37.7741 117.631 38.3764ZM79.7722 46.0342C79.8582 45.604 80.0303 45.2598 80.1164 44.8296L82.6977 34.7625C82.8698 33.9882 83.2139 33.1277 83.4721 32.3533C83.5581 32.1812 83.6441 32.0952 83.6441 31.9231C83.9883 31.2348 84.5906 30.8906 85.4511 30.9766C86.1394 30.9766 86.6557 31.3208 86.9138 31.9231C87.1719 32.5254 87.43 33.2138 87.6021 33.9021C88.2044 36.1392 88.7207 38.3764 89.323 40.5274C89.7532 42.2483 90.1834 43.8831 90.6136 45.604C90.6136 45.7761 90.6997 45.8621 90.7857 46.1202C90.8718 45.7761 90.9578 45.604 90.9578 45.4319L93.5391 35.3648C93.7972 34.3323 94.1414 33.3858 94.4856 32.4394C94.5716 32.1812 94.6577 31.9231 94.8298 31.751C95.26 31.2348 95.7762 30.9766 96.4646 31.1487C97.1529 31.3208 97.5831 31.751 97.7552 32.4394C97.9273 33.0417 97.7552 33.73 97.5831 34.3323L96.5506 38.2043C96.1204 39.9251 95.8623 41.732 95.4321 43.4529C95.0019 45.5179 94.4856 47.669 93.9693 49.7341C93.7112 50.7666 93.1949 51.627 92.6787 52.4014C91.7322 53.7781 89.5811 53.7781 88.7207 52.4014C88.1184 51.541 87.6882 50.5945 87.344 49.562C86.6557 46.8086 86.0534 44.0552 85.5371 41.3018C85.4511 40.8716 85.365 40.3553 85.279 39.9251C85.279 39.8391 85.1929 39.753 85.1069 39.667C85.0208 40.1833 84.8488 40.6995 84.7627 41.3018C84.2464 44.0552 83.6441 46.8086 82.9558 49.562C82.6977 50.5945 82.1814 51.541 81.5791 52.4014C80.6326 53.7781 78.4816 53.7781 77.5351 52.4014C76.9328 51.541 76.5026 50.5084 76.1584 49.4759C75.384 46.4644 74.7817 43.4529 74.1794 40.4414C73.8352 38.6345 73.319 36.9136 72.8887 35.1928C72.7167 34.5044 72.5446 33.9021 72.4585 33.2138C72.3725 32.5254 72.4585 31.9231 73.0608 31.4069C73.8352 30.7185 74.9538 30.8906 75.47 31.751C75.6421 32.0092 75.7282 32.3533 75.8142 32.6115C76.1584 33.8161 76.5886 35.0207 76.8467 36.2253C77.6211 39.3228 78.3955 42.5064 79.2559 45.604C79.2559 45.69 79.342 45.8621 79.342 45.9482L79.7722 46.0342Z" fill="#5C3594"/>
<path d="M137.68 39.8386L137.938 39.5805C138.541 38.8922 139.229 38.2899 140.003 37.8597C140.778 37.4294 141.552 37.1713 142.499 37.2573C143.961 37.4294 145.252 38.548 145.51 39.8386C145.596 40.3549 145.596 40.9572 145.682 41.4735C145.682 42.506 145.682 43.5385 145.768 44.571C145.854 45.6896 145.94 46.8081 146.026 48.0127C146.112 49.0453 146.199 50.0778 146.112 51.1103C145.94 52.573 144.908 53.5195 143.531 53.4335C142.499 53.3474 141.81 52.9172 141.38 51.9707C141.208 51.5405 141.122 51.0243 141.122 50.594C141.122 48.9592 141.294 47.3244 141.466 45.6896C141.638 44.6571 141.724 43.6245 141.552 42.592C141.466 42.0758 141.38 41.6456 141.208 41.1293C141.036 40.613 140.692 40.4409 140.176 40.6991C139.745 40.8712 139.315 41.1293 139.057 41.5595C138.627 42.0758 138.283 42.6781 137.852 43.1943C137.766 43.3664 137.68 43.6245 137.68 43.7966C137.594 44.8292 137.766 45.7756 137.852 46.8081C138.024 48.0988 138.11 49.3894 138.024 50.594C138.024 51.0243 137.938 51.3684 137.852 51.7986C137.508 52.8312 136.562 53.5195 135.443 53.5195C134.325 53.5195 133.464 52.8312 133.206 51.7126C133.034 51.0243 132.948 50.422 133.034 49.7336C133.12 48.529 133.206 47.3244 133.378 46.2058C133.55 44.7431 133.55 43.3664 133.636 41.9037C133.636 39.8386 133.636 37.6876 133.722 35.6225C133.722 34.7621 133.808 33.9017 133.98 33.0412C134.066 32.611 134.239 32.1808 134.411 31.8366C134.755 31.0622 135.615 30.8041 136.39 31.1483C136.562 31.2343 136.82 31.4064 136.992 31.5785C137.25 31.9227 137.422 32.3529 137.508 32.7831L137.766 35.6225C137.852 36.9132 137.766 38.2038 137.766 39.4945V39.9247C137.594 39.8386 137.68 39.8386 137.68 39.8386ZM105.586 44.0548C105.672 43.2804 105.586 42.592 105.242 41.9897C104.898 41.3014 104.209 40.9572 103.435 40.7851C103.005 40.6991 102.747 40.8712 102.403 41.2153C102.058 41.5595 101.714 41.9897 101.37 42.3339C100.854 42.9362 100.251 43.2804 99.4771 43.3664C98.3585 43.5385 97.4981 42.7641 97.6702 41.6456C97.7562 41.0433 98.0143 40.613 98.4446 40.1828C99.4771 39.1503 100.768 38.634 102.23 38.462C103.263 38.3759 104.209 38.462 105.156 38.634C106.705 39.0643 107.823 40.0107 108.426 41.4735C108.77 42.3339 109.028 43.2804 109.2 44.2268C109.458 46.0338 109.802 47.7546 110.146 49.4755C110.405 50.508 110.319 51.4545 109.802 52.3149C109.114 53.4335 107.823 53.6916 106.705 53.0033C106.361 52.7451 106.016 52.401 105.844 51.9707C105.758 51.7126 105.672 51.5405 105.5 51.2824C105.328 51.3684 105.242 51.4545 105.07 51.5405C104.812 51.7986 104.554 51.9707 104.209 52.2289C103.005 53.0893 101.628 53.5195 100.079 53.3474C99.391 53.2614 98.7887 53.0033 98.3585 52.401C97.6702 51.5405 97.326 50.508 97.4981 49.3894C97.7562 46.55 99.9933 44.2268 103.091 43.8827C103.779 43.7966 104.468 43.8827 105.156 43.9687C105.414 44.0548 105.5 44.0548 105.586 44.0548ZM105.586 47.0663C105.586 46.55 105.5 46.2919 105.07 46.1198C104.726 45.9477 104.468 46.0338 104.123 46.1198C102.747 46.6361 101.972 47.5825 101.628 48.9592C101.542 49.3034 101.628 49.6476 101.8 49.9917C101.972 50.3359 102.23 50.508 102.661 50.508C103.091 50.508 103.435 50.422 103.779 50.1638C104.295 49.7336 104.726 49.3894 105.242 48.9592C105.414 48.7871 105.5 48.7011 105.5 48.443C105.5 48.0127 105.586 47.4965 105.586 47.0663ZM120.988 45.7756C120.902 44.3129 121.332 43.0222 122.02 41.7316C123.225 39.4945 125.032 38.462 127.527 38.462C128.474 38.462 129.42 38.634 130.281 39.1503C131.657 39.8386 131.915 41.2153 131.055 42.4199C130.539 43.1083 129.936 43.3664 129.162 43.1083C128.56 42.9362 128.043 42.7641 127.441 42.592C126.667 42.3339 126.15 42.4199 125.634 43.0222C124.946 43.7106 124.688 44.571 124.688 45.5175C124.688 46.3779 124.774 47.2384 125.118 48.0127C125.376 48.615 125.72 49.0453 126.323 49.2174C126.667 49.3034 127.011 49.3034 127.355 49.2174C127.785 49.1313 128.216 48.9592 128.646 48.7871C129.076 48.615 129.506 48.529 130.022 48.615C130.883 48.8732 131.485 49.3894 131.657 50.2499C131.829 51.1103 131.571 51.7986 130.883 52.3149C130.281 52.7451 129.678 53.0033 128.904 53.1753C127.785 53.3474 126.753 53.3474 125.72 53.0033C124.43 52.573 123.397 51.7986 122.623 50.594C121.504 49.3034 120.988 47.5825 120.988 45.7756ZM26.7706 35.4504C26.5124 35.5365 26.2543 35.6225 25.9101 35.7946C25.2218 36.1388 24.5334 36.483 23.8451 36.7411C23.4149 36.9132 22.9847 36.9992 22.5545 36.9132C21.694 36.7411 21.0057 36.1388 20.9196 35.2784C20.8336 34.59 20.9196 33.9017 21.3498 33.2994C21.8661 32.525 22.6405 32.0087 23.5009 31.7506C24.7916 31.4064 25.9962 31.2343 27.2868 31.2343C28.6635 31.2343 30.0402 31.2343 31.4169 31.3204C32.2773 31.3204 33.0517 31.4925 33.9122 31.7506C35.2028 32.1808 36.0632 33.0412 36.4074 34.4179C36.5795 35.4504 35.9772 36.655 35.0307 36.8271C34.6865 36.9132 34.3424 36.9132 33.9982 36.8271C33.4819 36.655 32.9657 36.483 32.4494 36.2248L31.4169 35.7086C31.2448 35.6225 30.9867 35.5365 30.7286 35.4504C30.7286 35.6225 30.6425 35.7086 30.6425 35.7946C30.6425 37.7736 30.4704 39.7526 30.6425 41.7316C30.7286 43.3664 30.9006 44.9152 30.9867 46.55C31.0727 48.1848 31.1588 49.8197 30.8146 51.4545C30.7286 51.8847 30.5565 52.2289 30.3844 52.6591C30.2123 52.9172 30.0402 53.0893 29.8681 53.3474C29.2658 53.8637 28.4054 53.8637 27.8031 53.3474C27.2008 52.8312 26.8566 52.1428 26.6845 51.3684C26.5124 50.1638 26.4264 48.8732 26.5124 47.6686C26.5985 45.9477 26.7706 44.3129 26.8566 42.592C27.0287 40.2689 26.9427 37.9457 26.9427 35.7086C26.7706 35.5365 26.7706 35.5365 26.7706 35.4504ZM42.9467 51.5405C42.7746 51.6266 42.6886 51.7126 42.5165 51.7986C42.2583 51.9707 42.0002 52.2289 41.7421 52.487C40.7096 53.3474 39.505 53.6916 38.2143 53.6916C36.4935 53.6916 35.4609 52.6591 35.1168 51.1103C34.7726 49.8197 35.1168 48.529 35.7191 47.4104C36.6655 45.6896 38.1283 44.6571 40.1073 44.2268C40.9677 44.0548 41.7421 44.0548 42.6025 44.2268H42.9467C43.0327 43.8827 42.9467 43.5385 42.9467 43.1083C42.7746 41.9897 42.1723 41.2153 41.1398 40.9572C40.6235 40.8712 40.1933 40.9572 39.8491 41.3014C39.505 41.6456 39.1608 42.0758 38.8166 42.4199C38.3864 42.9362 37.7841 43.2804 37.0958 43.4525C36.9237 43.4525 36.7516 43.5385 36.5795 43.5385C35.633 43.5385 34.9447 42.7641 35.1168 41.8176C35.2028 41.2153 35.4609 40.6991 35.8912 40.2689C37.0097 39.1503 38.4724 38.634 40.0212 38.548C40.8817 38.462 41.7421 38.548 42.5165 38.8061C44.0653 39.2363 45.1838 40.0968 45.7861 41.5595C46.2163 42.506 46.4745 43.5385 46.5605 44.571C46.8186 46.2919 47.1628 48.0988 47.507 49.8197C47.6791 50.7661 47.593 51.5405 47.1628 52.401C46.4745 53.7776 44.7536 54.1218 43.549 52.7451L43.0327 51.9707C43.1188 51.8847 43.0327 51.7126 42.9467 51.5405ZM42.9467 47.4965V47.0663C42.9467 46.7221 42.7746 46.55 42.5165 46.3779C42.1723 46.2058 41.8281 46.2058 41.484 46.3779C40.1933 46.8942 39.3329 47.8407 38.9887 49.2174C38.9027 49.3894 38.9027 49.6476 38.9887 49.9057C39.0747 50.594 39.505 50.8522 40.1933 50.8522C40.5375 50.8522 40.8817 50.6801 41.1398 50.422C41.57 50.0778 42.0863 49.6476 42.5165 49.3034C42.6886 49.1313 42.7746 48.9592 42.7746 48.7011C42.8607 48.3569 42.9467 47.9267 42.9467 47.4965ZM67.6411 38.7201C69.1038 38.7201 70.3945 38.9782 71.6851 39.4945C72.3735 39.7526 72.8897 40.0968 73.3199 40.6991C74.0083 41.6456 73.7502 42.8502 72.8897 43.5385C72.2014 44.0548 71.341 44.0548 70.6526 43.5385C70.3084 43.2804 69.9643 42.9362 69.7061 42.6781C69.1899 42.2479 68.6736 42.0758 67.9853 42.0758C67.383 42.0758 67.1248 42.4199 67.1248 42.9362C67.1248 43.3664 67.2969 43.7106 67.555 43.9687C67.9853 44.3989 68.5876 44.7431 69.1899 44.9152C69.7061 45.0873 70.3084 45.2594 70.8247 45.5175C71.1689 45.6896 71.427 45.7756 71.7712 46.0338C73.3199 47.0663 74.0943 49.0453 73.5781 50.8522C73.3199 51.7126 72.8037 52.3149 72.1153 52.8312C71.427 53.2614 70.5666 53.6056 69.7061 53.6916C68.1574 53.8637 66.6086 53.6916 65.0598 53.0893C64.5435 52.9172 64.1133 52.6591 63.6831 52.401C63.2529 52.1428 62.9087 51.7126 62.7366 51.1963C62.3064 50.0778 63.1668 48.7871 64.2854 48.529C64.8017 48.443 65.2319 48.6151 65.6621 48.9592C66.0063 49.2174 66.2644 49.5615 66.6086 49.8197C67.1248 50.3359 67.7271 50.508 68.4155 50.422C69.0178 50.422 69.2759 49.9917 69.2759 49.3894C69.1899 48.7871 68.9317 48.2709 68.4155 48.0127C67.6411 47.6686 66.8667 47.3244 66.0923 47.0663C65.8342 46.9802 65.49 46.8942 65.2319 46.7221C63.7691 46.0338 62.9087 44.8291 62.7366 43.2804C62.6506 42.8502 62.7366 42.4199 62.8227 41.9897C62.9948 40.9572 63.5971 40.1828 64.4575 39.5805C65.404 38.9782 66.5225 38.7201 67.6411 38.7201ZM60.2414 35.5365V38.2038C60.2414 40.3549 60.2414 42.592 60.3274 44.7431C60.3274 45.5175 60.4995 46.2919 60.4995 47.0663C60.5856 48.1848 60.6716 49.3894 60.6716 50.508C60.6716 51.1103 60.5855 51.6266 60.4135 52.1428C60.0693 53.0893 59.2949 53.6916 58.2624 53.6916C57.3159 53.6916 56.4555 53.0893 56.1973 52.1428C56.0253 51.7126 55.9392 51.2824 55.9392 50.8522C55.9392 49.8197 55.8532 48.7871 56.0253 47.7546C56.4555 45.0873 56.4555 42.3339 56.4555 39.6666C56.4555 37.8597 56.5415 36.0527 56.5415 34.2458C56.5415 33.3854 56.7136 32.525 56.8857 31.6645C57.0578 30.9762 57.402 30.632 58.0903 30.3739C58.6926 30.2018 59.2949 30.4599 59.6391 30.9762C59.8972 31.4064 60.0693 31.9227 60.0693 32.4389C60.2414 33.5575 60.2414 34.504 60.2414 35.5365ZM53.53 43.2804C53.444 44.9152 53.616 46.55 53.8742 48.1848C54.0463 49.3034 54.0463 50.3359 53.8742 51.4545C53.7021 52.487 53.1858 53.2614 52.2394 53.6056C51.2929 53.9497 50.4325 53.6916 49.6581 53.0033C49.1418 52.487 49.0558 51.8847 48.9697 51.2824C48.7976 50.1638 48.8837 49.0453 49.0558 47.8407C49.2278 46.464 49.3999 45.0873 49.486 43.7106C49.486 42.592 49.6581 41.5595 49.7441 40.4409C49.8301 39.4945 50.4325 38.8922 51.3789 38.8061C52.4975 38.7201 53.1858 39.4945 53.3579 40.1828C53.444 40.613 53.53 41.0433 53.53 41.4735V43.2804ZM49.2278 34.8481C49.2278 33.4714 50.2604 32.4389 51.6371 32.4389C53.0998 32.4389 54.3044 33.5575 54.3044 35.0202C54.3044 36.3109 53.2719 37.4294 51.9812 37.4294C50.3464 37.4294 49.1418 36.3109 49.2278 34.8481Z" fill="#5C3594"/>
<path d="M28.4899 56.2729L28.3179 56.445H27.9737L27.8876 56.5311L27.8016 56.6171L27.6295 56.7031L27.5435 56.7892V56.8752L27.4574 57.0473V58.6821L27.5435 58.7682L27.6295 58.8542H27.8016L27.8876 58.9403H28.3179L28.4899 59.0263L28.576 59.1123L28.662 59.1984H28.576L28.1458 59.2844H27.9737L27.7156 59.3705H27.6295L27.4574 59.4565V61.9518L27.3714 62.1239V62.2959L27.2853 62.468V63.5006L27.1993 63.5866H27.1133L27.0272 63.5006V61.6936L27.1133 61.5216L27.1993 61.2634V59.1984L27.1133 59.1123H26.597L26.4249 58.9403L26.3389 58.8542V58.6821L26.4249 58.5961L26.511 58.51L26.7691 58.424L26.8551 58.338V58.2519V58.51V56.7892L26.9412 56.5311L27.0272 56.359L27.1133 56.2729L27.1993 56.1869V55.9288L27.2853 55.8427L27.3714 55.7567L27.4574 55.6706H28.0597L28.2318 55.7567L28.3179 55.8427L28.576 56.1008L28.662 56.1869L28.4899 56.2729ZM30.8131 60.489V60.8332L30.7271 60.9193V61.0053L30.641 61.1774L30.555 61.2634L30.4689 61.3495L30.2969 61.4355H29.2643L29.0922 61.3495L29.0062 61.2634L28.9202 61.1774L28.8341 61.0913H28.7481L28.662 61.0053L28.576 60.8332L28.4899 60.7472V59.8867L28.576 59.7147L28.662 59.4565L28.7481 59.3705V59.2844L28.8341 59.1984L28.9202 59.1123L29.0062 59.0263H29.2643L29.3504 59.1123L29.4364 59.1984V59.3705L29.3504 59.4565L29.2643 59.5426L29.1783 59.6286V59.7147L29.2643 59.9728L29.1783 60.1449V60.7472L29.2643 60.8332L29.3504 60.9193L29.4364 61.0053L29.5225 61.0913H30.1248L30.2969 61.0053L30.3829 60.9193L30.4689 60.7472V60.317L30.3829 60.1449L30.2969 60.0588L30.1248 59.9728L30.0387 59.8867L29.9527 59.8007L29.8666 59.7147V59.5426H29.9527L30.0387 59.6286L30.1248 59.7147L30.2108 59.8007L30.3829 59.8867L30.4689 59.9728L30.555 60.0588L30.641 60.1449L30.7271 60.2309V60.317L30.8131 60.489ZM32.3619 56.2729V58.424L32.1038 58.51V59.2844L32.0177 59.4565V61.5216L32.1038 61.6076L32.1898 61.6936L32.2758 61.7797L32.4479 61.9518V62.0378H32.3619L32.2758 61.9518L31.8456 61.6936L31.7596 61.5216L31.6735 61.3495V60.317L31.7596 60.1449V56.8752L31.6735 56.7031V56.359L31.5875 56.1869L31.5015 56.1008V55.7567L31.5875 55.6706L31.7596 55.5846L31.9317 55.4985H32.1038L32.2758 55.5846L32.4479 55.6706L32.534 55.7567L32.62 55.8427L32.3619 56.2729ZM32.62 60.0588H32.4479V59.9728L32.62 60.0588ZM33.9967 56.2729V58.424L33.7386 58.51V59.2844L33.5665 59.4565V61.6076L33.6525 61.6936L33.7386 61.7797L33.8246 61.8657L33.9967 62.0378V62.1239H33.9107L33.5665 61.7797L33.3944 61.6936L33.3084 61.5216L33.2223 61.3495V60.317L33.3084 60.1449V56.8752L33.2223 56.7031V56.359L33.1363 56.1869L33.0502 56.1008V55.9288L33.1363 55.8427L33.3084 55.7567L33.4805 55.6706H33.6525L33.8246 55.7567L33.9967 55.8427L34.0828 55.9288L34.1688 56.0148L33.9967 56.2729ZM34.2548 60.0588H34.0828V59.9728L34.2548 60.0588ZM36.9222 60.489V60.8332L36.8361 60.9193V61.0053L36.7501 61.1774L36.664 61.2634L36.578 61.3495L36.4059 61.4355L36.2338 61.5216H35.3734L35.2874 61.4355L35.2013 61.3495L35.1153 61.2634L35.0292 61.1774L34.8571 61.0913L34.7711 61.0053L34.6851 60.8332L34.599 60.7472V59.8867L34.6851 59.7147L34.7711 59.4565L34.8571 59.3705V59.2844L34.9432 59.1984L35.0292 59.1123L35.1153 59.0263H35.3734L35.4594 59.1123L35.5455 59.1984V59.3705L35.4594 59.4565L35.3734 59.5426L35.2874 59.6286V59.7147L35.2013 59.8007L35.1153 59.9728V60.5751L35.2013 60.6611L35.2874 60.7472L35.3734 60.8332L35.4594 60.9193H36.0617L36.2338 60.8332L36.3199 60.7472L36.4059 60.5751V60.1449L36.3199 59.9728L36.2338 59.8867L36.1478 59.8007L36.0617 59.7147V59.5426H36.1478L36.2338 59.6286L36.3199 59.7147L36.4059 59.8007L36.578 59.8867L36.664 59.9728L36.7501 60.0588L36.8361 60.1449L36.9222 60.2309V60.489ZM40.3639 59.1123L40.2779 59.2844V59.4565L40.1918 59.5426V59.8007L40.1058 59.9728V61.3495L40.0197 61.5216L39.9337 61.6076V62.2099L39.5895 62.0378H39.5035L39.4174 61.9518V61.6936L39.3314 61.6076V60.2309L39.2453 60.1449L39.1593 60.0588L38.8151 60.2309V60.5751L38.7291 60.6611L38.643 60.8332V62.0378L38.557 62.1239L38.2128 61.9518H37.9547V59.8867L37.8687 59.8007L37.7826 59.7147V59.3705L37.8687 59.2844L37.9547 59.1984L38.0407 59.1123H38.2128L38.2989 59.1984L38.3849 59.2844L38.471 59.3705V59.4565L38.557 59.5426V60.8332H38.7291V60.5751L38.8151 60.317L38.9012 60.1449L38.9872 60.0588L39.0733 59.8867L39.1593 59.7147V59.4565H39.2453V59.9728L39.3314 60.1449V60.317L39.4174 60.489V61.4355L39.5035 61.3495V60.1449L39.5895 59.9728V59.7147L39.6756 59.6286L39.7616 59.5426L39.8476 59.3705L39.9337 59.2844L40.0197 59.1984L40.1058 59.1123V59.0263L40.1918 58.9403V58.8542H40.2779L40.3639 59.1123ZM45.6125 58.9403V59.0263H44.8382L44.7521 59.1123H44.6661L44.494 59.1984L44.4079 59.2844V59.8007L44.3219 59.9728V61.9518L44.4079 62.1239L44.494 62.2099L44.6661 62.2959H44.9242L44.8382 62.382L44.6661 62.468H44.3219L44.1498 62.382L43.9777 62.2959L43.8917 61.9518L43.7196 61.7797L43.6335 61.6076V58.9403H43.4615L43.2894 59.0263L43.2033 59.3705H43.0312V59.1123L43.1173 59.0263L43.2033 58.9403H43.6335V57.9077L43.7196 57.8217L43.8917 57.7357L43.9777 57.6496L44.1498 57.5636H44.2359L44.3219 57.6496L44.4079 57.7357V57.8217L44.494 57.9077V57.9938L44.58 58.0798V58.6821L44.6661 58.7682H45.7846L45.6125 58.9403ZM45.5265 59.4565L45.4405 59.5426H45.3544V59.4565H45.5265ZM48.1938 61.6936V61.8657L48.1078 61.9518H48.0217L47.9357 61.8657L48.0217 61.7797V60.7472L47.9357 60.5751V59.9728L47.8497 59.8867L47.7636 59.8007L47.6776 59.6286V59.4565L47.5915 59.3705H47.3334L47.0753 59.4565L46.9892 59.5426L46.9032 59.7147L46.8171 59.9728V61.4355L46.9032 61.7797V62.468L46.8171 62.5541H46.7311L46.473 62.2959L46.3869 62.2099V61.2634L46.3009 61.0913V60.489L46.1288 60.2309V58.5961L46.0428 58.424V57.3054L45.9567 57.1334V56.2729L46.0428 56.1008V56.0148H46.1288V55.9288L46.2148 55.7567L46.3869 55.6706H46.7311L46.9032 55.7567L46.9892 55.9288L47.0753 56.0148V56.2729L46.9892 56.359L46.559 56.7892V57.3915L46.473 57.6496V59.1123L46.559 59.0263L46.7311 58.8542L46.9892 58.7682H47.4194L47.5915 58.8542L47.7636 58.9403L47.9357 59.1123L48.0217 59.1984V61.3495L48.1938 61.6936ZM51.5495 59.8867L51.4635 59.9728L51.2914 60.0588L51.1193 60.1449L50.9472 60.2309H50.603L50.431 60.317L50.2589 60.403H49.5705V60.6611L49.6566 60.7472L49.7426 60.9193L49.9147 61.0913L50.0007 61.1774L50.1728 61.2634L50.2589 61.3495L50.431 61.4355H50.8612L51.0333 61.3495H51.2914V61.4355L51.2053 61.5216L51.0333 61.6076H50.7751L50.603 61.6936H50.2589L50.0868 61.6076H49.9147L49.7426 61.4355L49.5705 61.2634L49.4845 61.1774L49.3124 61.0913L49.2264 61.0053L49.1403 60.9193L49.0543 60.6611L48.9682 60.403L48.8822 60.2309V59.2844L48.9682 59.1984H49.0543L49.1403 59.0263L49.3124 58.9403L49.4845 58.8542H50.2589L50.431 58.9403L50.9472 59.1984L51.1193 59.2844L51.2914 59.3705L51.3774 59.4565V59.6286C51.5495 59.7147 51.5495 59.8867 51.5495 59.8867ZM50.6891 59.6286L50.517 59.4565L50.3449 59.3705H49.8287L49.6566 59.4565L49.5705 59.5426H49.4845L49.3984 59.6286V59.7147H50.7751L50.6891 59.6286ZM54.561 60.317L54.475 60.403V60.317H54.561ZM57.0563 60.2309V60.403L56.9702 60.5751L56.7982 60.8332V60.9193L56.7121 61.0053L56.6261 61.0913H55.8517L55.7656 61.0053L55.6796 60.9193V60.7472L55.7656 60.6611H55.9377V60.8332L56.1098 60.9193H56.3679L56.54 60.8332L56.6261 60.7472L56.7982 60.5751L56.8842 60.403V60.1449L56.7982 60.0588V59.8007L56.7121 59.7147L56.6261 59.6286L56.54 59.5426L56.454 59.4565H56.0238L55.8517 59.6286L55.7656 59.7147L55.6796 59.8007V60.1449L55.5936 60.2309L55.5075 60.317V60.2309V61.0053L55.3354 61.0913L55.2494 61.4355L55.1633 61.6076V62.1239L55.0773 62.2959V63.8447L54.9913 63.9308V64.0168L54.9052 63.9308V62.8122L54.9913 62.6401V62.2959L55.0773 62.2099L54.9913 62.0378V61.1774L55.0773 61.0913V60.0588L54.9913 59.9728V59.8867L55.0773 59.8007V59.3705L54.9052 59.1984L54.8192 58.9403V58.7682L54.9052 58.6821L54.9913 58.5961H55.1633L55.4215 58.6821H55.5936L55.6796 58.8542V59.0263L55.7656 59.1123H55.9377L56.1098 59.0263L56.454 58.9403H56.6261L56.7982 59.0263L56.8842 59.1123L56.9702 59.1984L57.0563 59.2844L57.2284 59.5426V59.7147L57.3144 59.8867V60.317L57.0563 60.2309Z" fill="#F56476"/>
<path d="M59.8959 61.5206L59.8098 61.6927H59.7238L59.6377 61.6067V61.5206L59.5517 61.4346V61.2625H59.3796L59.2936 61.3486L59.1215 61.4346L59.0354 61.5206L58.8633 61.6067L58.6912 61.6927L58.5192 61.7788V61.6927H58.175L58.0029 61.6067L57.8308 61.5206L57.7448 61.4346L57.6587 61.3486V60.8323L57.7448 60.6602L57.8308 60.4881L57.9169 60.4021L58.0029 60.316H58.5192L58.6912 60.23L58.8633 60.144H59.0354V60.0579L58.9494 59.8858L58.8633 59.7998L58.6912 59.6277L58.5192 59.5417H58.175L58.0889 59.6277L58.0029 59.7137H57.7448L57.5727 59.7998H57.4006L57.3146 59.7137L57.2285 59.6277V59.4556L57.3146 59.3696L57.4006 59.1975L57.4866 59.1114L57.6587 59.0254L57.8308 58.9394L58.0029 58.8533L58.261 58.7673H58.4331L58.6052 58.8533L58.7773 58.9394L58.9494 59.0254L59.1215 59.1114L59.2075 59.1975L59.2936 59.3696H59.3796L59.4656 59.5417L59.5517 59.7137L59.6377 59.8858V60.23L59.7238 60.4021V60.5742L59.8098 60.9183L59.8959 61.0904L59.9819 61.2625V61.4346L59.8959 61.5206ZM59.2075 60.5742L59.0354 60.4881H58.9494L58.8633 60.5742H58.7773L58.6912 60.6602H58.6052L58.5192 60.7463L58.4331 60.8323L58.3471 60.9183L58.261 61.0044V61.2625L58.3471 61.3486H58.6912L58.7773 61.2625H58.8633L59.0354 61.0904L59.1215 61.0044L59.2075 60.9183L59.2936 60.8323L59.2075 60.5742ZM59.8098 60.6602H59.7238V60.5742L59.8098 60.6602ZM63.2515 59.1114L63.1655 59.2835V59.3696L63.0795 59.4556V59.5417L62.9934 59.7137L62.9074 59.8858V60.0579L62.8213 60.23V61.2625L62.7353 61.4346L62.6492 61.6067V62.209L62.5632 62.295H62.4771L62.3911 61.9509V61.6927L62.3051 61.6067V61.4346L62.219 61.2625V60.7463L62.133 60.6602V60.5742L61.9609 60.4021V60.23L61.8748 60.144L61.7888 60.0579V60.5742L61.7028 60.6602L61.6167 60.8323L61.5307 60.9183L61.4446 61.0904V61.2625L61.3586 61.3486V61.8648L61.2725 61.9509V62.0369L61.1865 61.9509H60.8423V61.4346L60.7563 61.3486V60.9183L60.6702 60.6602V60.0579L60.5842 59.9719V59.7998L60.4982 59.7137L60.4121 59.6277V59.3696L60.4982 59.2835L60.5842 59.1975L60.6702 59.1114H60.8423L60.9284 59.1975L61.0144 59.2835L61.1005 59.3696V59.4556L61.1865 59.5417V60.8323H61.3586L61.4446 60.7463V60.6602L61.5307 60.5742L61.6167 60.316L61.7028 60.144L61.7888 60.0579L61.8748 59.8858L61.9609 59.7137V59.6277L62.0469 59.5417V59.4556H62.133L62.219 59.5417V59.9719L62.3051 60.144V60.316L62.3911 60.4881V61.4346L62.4771 61.3486V61.1765L62.3911 61.0904V60.144L62.4771 59.9719V59.7137L62.5632 59.6277L62.6492 59.5417L62.7353 59.3696L62.8213 59.2835L62.9074 59.1975L62.9934 59.1114V59.0254L63.0795 58.9394L63.1655 58.8533H63.2515V59.1114ZM63.5957 58.9394H63.4236L63.5097 58.8533L63.5957 58.9394ZM65.5747 61.0044V61.1765L65.4887 61.3486L65.4026 61.4346V61.5206L65.3166 61.6067H65.2305L65.1445 61.6927L65.0584 61.7788H64.5422L64.4561 61.6927H64.2841L64.112 61.6067L63.9399 61.5206L63.8538 61.4346H63.7678L63.6818 61.3486V61.0904L63.7678 60.9183V60.8323L63.8538 60.7463H63.9399V61.1765L64.0259 61.2625L64.112 61.3486L64.2841 61.4346L64.3701 61.5206H64.5422L64.6282 61.6067H64.8864L64.9724 61.5206L65.0584 61.4346L65.1445 61.3486L65.2305 61.2625V60.9183L65.1445 60.8323L65.0584 60.7463L64.8864 60.6602L64.7143 60.5742L64.6282 60.4881L64.4561 60.4021H64.5422L64.3701 60.316L64.2841 60.23H64.112L64.0259 60.144L63.9399 60.0579L63.8538 59.9719L63.7678 59.8858L63.6818 59.7998V59.3696L63.7678 59.1975L63.8538 59.1114L63.9399 59.0254V58.9394L64.0259 58.8533H64.112V58.7673H64.198L64.2841 58.6812H64.5422L64.7143 58.5952H65.2305L65.3166 58.6812L65.4026 58.7673L65.4887 58.8533L65.5747 58.9394V59.1975L65.4887 59.2835H65.4026L65.3166 59.3696H64.6282L64.4561 59.4556L64.5422 59.5417L64.4561 59.6277V59.7998L64.5422 59.8858L64.6282 59.9719H64.7143L64.8003 60.0579L64.8864 60.144L64.9724 60.23L65.0584 60.316H65.1445L65.2305 60.4021L65.3166 60.4881H65.4026L65.4887 60.5742L65.5747 60.6602L65.6608 60.7463V61.0904L65.5747 61.0044ZM68.6723 60.316L68.5862 60.4021L68.5002 60.316H68.6723ZM71.1675 60.23V60.4021L71.0815 60.5742L70.9094 60.8323L70.8233 60.9183L70.7373 61.0044L70.6513 61.0904H69.9629L69.8769 61.0044L69.7908 60.9183V60.7463L69.8769 60.6602H70.049V60.8323L70.221 60.9183H70.4792L70.6513 60.8323L70.7373 60.7463L70.9094 60.5742L70.9954 60.4021V60.144L70.9094 60.0579V59.7998L70.8233 59.7137L70.7373 59.6277L70.5652 59.5417L70.4792 59.4556H70.049L69.8769 59.6277L69.7908 59.7137L69.7048 59.7998V60.144L69.6187 60.23H69.5327V61.0044L69.4466 61.0904L69.3606 61.4346L69.2746 61.6067V62.1229L69.1885 62.295V62.4671L69.1025 62.6392L69.0164 62.8113V62.9834L68.9304 63.1555V63.9299L68.8443 64.0159L68.7583 64.1019L68.8443 63.7578V62.7253V62.8113L68.9304 62.6392V62.295L69.0164 62.209L68.9304 62.0369V61.1765L69.0164 61.0904L68.9304 60.9183V60.144L68.8443 60.0579L68.7583 59.9719V59.8858L68.8443 59.7998V58.6812L68.9304 58.5952L69.0164 58.5091H69.1885L69.4466 58.5952H69.6187L69.7048 58.7673V58.9394L69.7908 59.0254H69.9629L70.135 58.9394L70.4792 58.8533H70.6513L70.8233 58.9394L70.9094 59.0254L70.9954 59.1114L71.0815 59.1975L71.2536 59.4556V59.6277L71.3396 59.7998V60.23H71.1675ZM74.5232 61.3486L74.4372 61.4346H74.2651L74.179 61.3486L74.093 61.2625L74.0069 61.1765L73.9209 60.9183V60.6602L73.8349 60.7463L73.7488 60.8323V61.0044L73.5767 61.0904L73.4907 61.1765L73.4046 61.2625L73.3186 61.3486L73.2325 61.4346L73.1465 61.5206L72.9744 61.6067H72.7163L72.6302 61.5206L72.4582 61.4346L72.3721 61.3486L72.2861 61.2625L72.2 61.1765L72.114 61.0904V60.9183L72.0279 60.7463V60.5742L71.9419 60.4021V60.144L71.8559 59.9719V59.3696L71.9419 59.2835L72.0279 59.1975H72.2L72.2861 59.2835L72.3721 59.3696L72.4582 59.4556L72.5442 59.5417V59.7998L72.4582 59.8858L72.3721 59.9719V60.144L72.2861 60.316V60.6602L72.3721 60.8323L72.4582 60.9183L72.5442 61.0044L72.7163 61.0904L72.8884 61.1765L73.0605 61.2625L73.1465 61.1765L73.2325 61.0904L73.3186 61.0044L73.4046 60.8323L73.4907 60.7463L73.5767 60.6602L73.6628 60.4881V60.144L73.5767 59.9719V59.2835L73.6628 59.1975H73.8349L73.9209 59.2835V59.9719L73.8349 60.0579V60.316L73.9209 60.4021V60.5742L74.0069 60.6602V61.0044L74.093 61.1765L74.179 61.2625L74.2651 61.3486L74.3511 61.4346L74.5232 61.3486ZM72.9744 60.23V60.4021L72.8023 60.5742L72.7163 60.4881L72.6302 60.23V60.0579L72.5442 59.9719L72.6302 59.8858H72.7163L72.8023 59.9719L72.9744 60.23ZM76.8464 59.3696H76.5022L76.3301 59.4556L76.2441 59.5417L76.072 59.6277L75.9859 59.7137L75.8999 59.7998L75.8138 59.8858V60.316L75.7278 60.4021V61.8648L75.6418 62.0369L75.5557 62.1229H75.2976L75.2115 62.0369V60.0579L75.1255 59.8858L75.0395 59.7998V59.5417L75.1255 59.4556L75.2115 59.3696L75.3836 59.2835L75.5557 59.1975H75.6418L75.8138 59.2835V59.3696L75.8999 59.4556V59.6277L75.9859 59.7137H76.158L76.2441 59.6277L76.3301 59.5417L76.5022 59.4556L76.5882 59.3696H77.1045H76.8464ZM79.0835 59.3696H78.7393L78.5672 59.4556L78.4812 59.5417L78.3091 59.6277V59.7137L78.2231 59.7998L78.137 59.8858V60.316L78.051 60.4021V61.7788L77.9649 61.9509L77.8789 62.0369H77.6207L77.4487 61.7788V59.7998L77.3626 59.6277L77.2766 59.5417V59.2835L77.3626 59.1975L77.4487 59.1114L77.6207 59.0254L77.7928 58.9394H77.8789L78.051 59.0254V59.1114L78.137 59.1975V59.3696L78.2231 59.4556H78.3951L78.4812 59.3696L78.5672 59.2835L78.7393 59.1975L78.8254 59.1114H79.3416L79.0835 59.3696ZM82.181 60.4021L82.009 60.4881H81.7508L81.6648 60.4021H80.3741L80.116 60.4881H79.6858L79.5997 60.4021L79.5137 60.316L79.4277 60.23V60.0579L79.5137 59.8858L79.6858 59.7998L79.8579 59.7137H80.6323L82.181 60.0579L82.2671 60.144L82.181 60.4021ZM84.6763 56.272L84.5042 56.4441H84.16L84.074 56.5301L83.9879 56.6162L83.8159 56.7022L83.6438 56.7883V56.8743L83.5577 57.0464L83.4717 57.2185V57.7347L83.3856 57.9068V58.6812L83.4717 58.7673L83.5577 58.8533H83.7298L83.8159 58.9394H84.2461L84.4182 59.0254L84.5042 59.1114L84.5903 59.1975H84.5042L84.16 59.2835H83.9879L83.7298 59.3696H83.6438L83.4717 59.2835V61.7788L83.3856 61.9509V62.1229L83.2996 62.295V63.3276L83.2136 63.4136H83.1275L83.0415 63.3276V62.3811L83.1275 62.209V62.0369L83.2136 61.8648L83.2996 61.6067V59.5417L83.2136 59.4556H82.8694L82.6113 59.3696H82.5252L82.3531 59.1975L82.2671 59.1114V58.9394L82.3531 58.8533L82.4392 58.7673L82.6973 58.6812H82.8694L82.9554 58.5952V58.165L82.8694 57.9929V57.8208L82.7833 57.5627V57.2185L82.8694 56.9604V56.7883L82.9554 56.5301L83.0415 56.3581L83.1275 56.272L83.2136 56.186V55.9278L83.2996 55.8418L83.4717 55.9278L83.5577 55.8418H84.16L84.3321 55.9278L84.4182 56.0139L84.5903 56.186L84.6763 56.272ZM87.2576 59.8858L87.1715 59.9719L86.9995 60.0579L86.8274 60.144L86.6553 60.23H86.4832L86.3111 60.316L86.139 60.4021L85.9669 60.4881H85.2786L85.1926 60.5742V60.7463L85.2786 60.8323L85.3646 61.0044L85.5367 61.1765L85.6228 61.2625L85.7949 61.3486L85.8809 61.4346L86.053 61.5206H86.4832L86.6553 61.4346H86.9134L86.8274 61.5206L86.7413 61.6067L86.5692 61.6927L86.3972 61.7788L86.2251 61.8648H85.8809L85.7088 61.7788L85.5367 61.6927L85.3646 61.5206L85.1926 61.3486V61.1765L85.1065 61.0904L85.0205 61.0044L84.9344 60.9183L84.8484 60.6602L84.7623 60.4021L84.6763 60.23V59.5417L84.7623 59.4556L84.8484 59.3696L84.9344 59.2835L85.0205 59.1975H85.1065L85.1926 59.0254L85.3646 58.9394L85.5367 58.8533H86.3111L86.4832 58.9394L86.9995 59.1975L87.1715 59.2835L87.3436 59.3696L87.4297 59.4556L87.5157 59.6277L87.2576 59.8858ZM86.3972 59.6277L86.2251 59.4556L86.053 59.3696H85.5367L85.3646 59.4556L85.2786 59.5417H85.1926L85.1065 59.6277V59.7137H86.3111L86.3972 59.6277ZM87.6878 59.7998H87.6018L87.5157 59.7137L87.6878 59.7998ZM90.011 59.4556V59.5417L89.9249 59.6277L89.8389 59.7998L89.6668 59.8858H89.4947L89.3226 59.7998H89.2366L89.0645 59.7137H88.8064L88.6343 59.7998L88.5482 59.8858L88.4622 60.0579L88.3761 60.23V60.4021L88.2901 60.4881L88.2041 60.6602V61.0904L88.2901 61.2625L88.3761 61.3486L88.4622 61.4346L88.6343 61.5206L88.7203 61.6067H89.3226L89.4087 61.5206H89.4947L89.5808 61.6067V61.6927L89.4947 61.7788L89.4087 61.8648L89.2366 61.9509L89.0645 62.0369H88.5482L88.3761 61.9509L88.2901 61.8648L88.118 61.7788H88.032L87.9459 61.6067L87.8599 61.5206V61.1765L87.7738 61.0044V60.144L87.8599 59.9719V59.7137L87.9459 59.5417L88.118 59.3696L88.2041 59.2835H88.2901L88.4622 59.1975H88.6343L88.8064 59.1114L88.9785 59.0254H89.6668L89.8389 59.1114L90.011 59.1975L90.097 59.2835L90.1831 59.3696L90.011 59.4556Z" fill="#F56476"/>
<path d="M92.8501 58.9391L92.764 59.0251H91.9896L91.8175 59.1112H91.7315L91.5594 59.1972L91.4734 59.2833L91.3873 59.3693V59.7995L91.3013 59.9716V61.9506L91.3873 62.1227L91.4734 62.2088L91.6455 62.2948H91.9036L91.8175 62.3808L91.6455 62.4669H91.3013L91.1292 62.3808L90.9571 62.2948L90.785 62.2088L90.6129 62.0367L90.5269 61.8646V60.746L90.4409 60.5739V59.1972H90.2688L90.0967 59.2833L90.3548 59.3693H90.1827V59.1112L90.2688 59.0251L90.3548 58.9391H90.785V57.9066L90.8711 57.8205L91.0432 57.7345L91.1292 57.6485L91.3013 57.5624H91.3873L91.4734 57.6485L91.5594 57.7345V57.8205L91.6455 57.9066V57.9926L91.7315 58.0787V58.5089L91.6455 58.5949V58.681L91.7315 58.767H92.8501V58.9391ZM92.678 59.4554L92.5919 59.5414H92.5059V59.4554H92.678ZM94.0547 56.2718V56.6159L93.9686 56.788V58.4228L93.8826 58.5949V58.767L93.7965 58.9391V59.3693L93.7105 59.5414V60.5739L93.6245 60.746V61.6925L93.7105 61.7785L93.7965 61.8646L93.8826 61.9506L94.0547 62.1227V62.2088H93.9686L93.8826 62.1227L93.7105 62.0367L93.6245 61.8646L93.5384 61.6925V60.66L93.6245 60.4879V58.681L93.5384 58.4228V57.2182L93.4524 57.0462L93.3663 56.8741V56.702L93.2803 56.5299L93.1942 56.4439L93.1082 56.2718V56.0997L93.1942 56.0136L93.3663 55.9276L93.5384 55.8416H93.7105L93.8826 55.9276H93.7965L93.8826 56.0136L93.9686 56.0997L94.0547 56.2718ZM94.2268 60.0577H94.0547L94.1407 59.9716L94.2268 60.0577ZM94.5709 59.8856H94.4849L94.3988 59.7995L94.5709 59.8856ZM97.1522 61.5204V61.6925L97.0662 61.9506V62.2948L96.9801 62.3808V62.725L96.8941 62.8971L96.8081 63.0692V63.1552L96.722 63.2413L96.636 63.3273L96.5499 63.4134L96.4639 63.4994V63.5854L96.3778 63.6715L96.2918 63.7575L96.2058 63.8436L96.1197 63.9296L96.0337 64.0157H95.6895L95.3453 63.9296L95.1732 63.8436H95.0872L95.0011 63.7575H94.9151L94.8291 63.6715V62.9831V63.4134L94.9151 63.5854L95.0011 63.6715H95.0872L95.1732 63.7575H95.9476L96.0337 63.6715L96.1197 63.5854L96.2058 63.4994L96.2918 63.4134L96.3778 63.2413L96.5499 63.0692V62.9831L96.636 62.8971V62.8111L96.722 62.725V62.8111L96.8081 62.639L96.8941 62.5529V62.1227L96.9801 62.0367V61.2623L96.8941 61.1762H96.8081L96.722 61.2623L96.636 61.3483H96.5499L96.4639 61.4344L96.3778 61.5204H96.2918L96.2058 61.6064H96.1197L95.9476 61.6925H95.7755L95.6034 61.6064L95.4314 61.5204H95.3453L95.2593 61.4344H95.1732L95.0872 61.3483L95.0011 61.2623L94.9151 61.1762L94.8291 61.0902V60.4879L94.743 60.3158V59.7995L94.657 59.6275V59.2833L94.743 59.1972L94.8291 59.1112L94.9151 59.0251H95.1732L95.2593 59.1112L95.3453 59.1972L95.4314 59.2833L95.5174 59.4554L95.6034 59.6275V60.1437H95.6895V60.3158L95.7755 60.4018V60.4879L95.8616 60.5739L95.9476 60.66L96.1197 60.746L96.2058 60.66H96.2918L96.3778 60.5739L96.4639 60.4879H96.722L96.8081 60.4018L96.8941 60.3158L96.9801 60.2298V59.2833L96.8941 59.0251L96.8081 58.9391V58.8531L96.8941 58.767L96.9801 58.681H97.0662L97.1522 58.767V58.8531L97.2383 58.9391L97.3243 59.0251V59.1112L97.4104 59.1972V61.0041L97.3243 61.1762V61.2623L97.1522 61.5204Z" fill="#F56476"/>
</svg>
